<?xml version="1.0" encoding="UTF-8"?>
<!DOCTYPE svg PUBLIC "-//W3C//DTD SVG 1.1//EN" "http://www.w3.org/Graphics/SVG/1.1/DTD/svg11.dtd">
<!-- Creator: CorelDRAW 2018 (64-Bit) -->
<svg xmlns="http://www.w3.org/2000/svg" xml:space="preserve" width="210mm" height="297mm" version="1.1" style="shape-rendering:geometricPrecision; text-rendering:geometricPrecision; image-rendering:optimizeQuality; fill-rule:evenodd; clip-rule:evenodd"
viewBox="0 0 21000 29700"
 xmlns:xlink="http://www.w3.org/1999/xlink">
 <defs>
  <style type="text/css">
   <![CDATA[
    .fil0 {fill:black}
   ]]>
  </style>
 </defs>
 <g id="Layer_x0020_1">
  <metadata id="CorelCorpID_0Corel-Layer"/>
  <g id="_2938781704976">
   <g>
    <path class="fil0" d="M10691.26 18158.57c-52.86,0 -133.62,-53.01 -179.65,-83.64 -81.42,-54.18 -180.4,-145.83 -235.57,-229.04 -77.78,-117.36 -147.68,-239.87 -172.03,-385.5 -89.2,-533.59 216.98,-1053.67 736.03,-1212.69l320.51 -64.4 329.95 30.17c90.83,26.07 100.5,35.11 171.44,76.36 177.56,103.21 424.93,337.5 494.53,512.13 114.39,287.04 98.87,153.75 -183.53,439.12l-277.7 233.38c-299.04,236.1 -611.71,465.39 -947.33,647.85 -23.68,12.88 -48.47,36.26 -56.65,36.26zm-557.59 15.49c-29.18,39.83 -46.92,39.39 -92.9,61.96 -379.48,186.22 -798.17,139.94 -1095.98,-158.57 -70.49,-70.65 -131.57,-165.64 -174.2,-259.43 -204.18,-449.17 -1.6,-969.45 446.4,-1210.93 83.17,-44.83 245.16,-96.04 359.11,-105.52 73.39,49.14 232.39,148.71 325.26,170.35 -19.19,82.29 -66.37,133.69 -115.24,380.34 -63.76,321.89 37.68,711.78 232.65,973.43 40.89,54.88 79.55,95.57 114.9,148.37zm2338.72 -1440.2c-96.07,-46.08 -54.19,6.71 -98.96,-102.39 -18.04,-43.97 -21.07,-35.57 -40.16,-68.24l-340.89 -402.48c-84.26,-61.75 -169.42,-120.57 -272.48,-161.18 -51.72,-20.36 -106.11,-50.9 -161.31,-55.48 -5.22,-233.97 -105.03,-317.24 75.23,-730.07 50.37,-115.35 105.81,-171.04 166.32,-251.81 53.53,-71.5 83.8,-88.07 149.65,-144.62 214.2,-183.98 492.55,-236.28 770.4,-236.28 34.86,130.5 261.63,314.41 374.22,400.14 143.82,109.48 337.12,187.61 539.59,234.77 3.48,41.83 7.25,42.13 15.48,77.43l-855.41 1095.96c-37.87,39.24 -38.25,41.98 -71.01,83.85l-250.67 260.4zm-1254.54 -1130.47c0,134.94 -10.85,165.71 15.48,278.74 -333.67,0 -606.58,78.53 -836.41,232.24l-236.12 197.52c-79.12,78.69 -77.93,204.93 -383.6,-11.38 -796.83,-563.89 -441.52,-1843.09 588.8,-1843.09 433.04,0 770.08,299.62 908.56,702.92 17.44,50.8 19.42,48.32 8.26,88.59 -34.83,125.76 -64.97,212.59 -64.97,354.46zm1270.02 -1796.38c0,236.65 51.16,193.71 -83.59,396.47 -96.44,145.08 -103.16,87.84 -266.44,151.74 -373.29,146.09 -404.78,303.52 -563.77,303.52 -290.84,0 -249.45,-37.06 -367.63,-143.47 -30.37,-27.36 -38.21,-26.85 -69.8,-54.09 -33.56,-28.98 -40.92,-33.64 -79.84,-59.54 -63.18,-42.07 -99.78,-58.94 -169.43,-93.86 -33.5,-16.79 -48.77,-26.95 -82.75,-41.15 -72.48,-30.32 -112.96,-24.2 -184.67,-202.5 -171.14,-425.49 -113.99,-838.36 206.86,-1159.17 389.92,-389.86 1016.45,-396.07 1386.37,-62.19 82.17,74.19 149.91,148.04 209.89,239.25 227.04,345.33 64.8,380.19 64.8,724.99zm1424.92 1130.47c-56.58,-1.26 -176.42,-20.45 -229.31,-33.99 -153.04,-39.18 -260.95,-81 -390.27,-167.28l-157.97 -120.81c-66.28,-52.41 -187.3,-244.55 -229.3,-328.21 -205.95,-410.34 -91.02,-926.6 213.06,-1227.41 102.43,-101.34 187.16,-165.03 323.89,-233.65 419.95,-210.75 916.74,-145.27 1288.02,147.38 43.69,34.42 69.62,49.33 107.16,94.17l158.88 228.3 -669.08 1034.45c-25.19,37.79 -41.28,63.31 -67.94,102.43 -28.36,41.64 -43.73,56.93 -71.5,98.85l-118.79 176.34c-14.29,18.95 -5.79,6.31 -20.59,26.19l-136.26 203.24zm-92.94 -3066.24c0,330.3 69.15,411.45 77.44,511.06 -115.67,9.61 -240.27,36.15 -340.98,61.7 -246.77,62.59 -586.24,269.06 -727.7,480.31 -96.78,0 -166.92,7.93 -217.3,-61.48 -307.1,-423.25 -676.96,-462.51 -719.98,-503.51 -48.5,-46.24 -100.42,-294.89 -100.42,-395.15 0,-616.16 613.39,-1130.47 1146.13,-1130.47 256.99,0 454.93,10.67 678.61,157.7 182.88,120.24 148.37,102.15 262.45,233.15 41.62,47.79 37.29,51.09 65.65,104.69 -63.67,120.32 -123.9,355.76 -123.9,542zm1409.43 1068.54c-154.6,0 -197.87,-133.59 -306.9,-219.68l-222.77 -148.91c-29.58,-18.47 -44.48,-28.21 -79.3,-44.59 -56.58,-26.62 -118.67,-50.42 -178.71,-69.1 -137.11,-42.66 -130.55,-6.38 -168.19,-79.61 -169.93,-330.62 -154.6,-764.04 57.16,-1064.51 24.41,-34.62 39.97,-42.26 65.19,-74.2 28.16,-35.66 27.52,-41.53 62.7,-76.7l318.77 -223.26c109.26,-71.68 139.8,-90.89 282.73,-119.97 310.08,-63.09 614.02,-13.95 872.81,162.77 106.78,72.93 183.27,144.58 256.76,254.31l-113.59 211.62c-134.9,272.23 -448.92,819.2 -599.35,1073.23 -82.18,138.78 -170.58,273.61 -247.31,418.6zm-1130.63 -1873.81c-28.12,-105.18 -332.69,-333.04 -477.8,-389.49 -354.82,-137.97 -398.13,-121.54 -730.28,-121.54 -12.74,-54.63 -35.66,-82.61 -56.35,-144.97 -86.01,-259.02 -31.44,-492.3 87.27,-722.32 33.66,-65.21 67.46,-96.47 111.2,-152.05 184.6,-234.58 545.75,-420.86 895.59,-420.86 328.65,0 639.63,71.85 840.24,274.86 153.1,154.91 226.87,216.21 287.38,455.99 44.96,178.18 38.55,254.66 -0.3,427.31 -53.11,236.05 -114.32,246.85 -215.53,280.05 -468.97,153.78 -591.29,412.51 -741.42,513.02zm2307.72 -294.23c-76.87,-36.88 -145.76,-10.97 -351,-113.63 -64.4,-32.2 -91.41,-47.21 -147.77,-84.53 -475.37,-314.9 -593.37,-975.36 -255.93,-1377.19l178.77 -177.43c290.13,-230.29 687.46,-263.01 1034.86,-146.29 49.03,16.48 70.28,30.54 114.13,40.76l-105.32 498.65c-100.78,401.56 -248.23,871.38 -421.18,1251.35 -19.08,41.9 -34.6,57.03 -46.56,108.31zm-1146.13 -3329.49c239.99,0 621.24,106.11 770.59,282.58 85.39,100.87 52.77,150.74 133.56,392.99 24.53,73.58 45.29,132.45 69.28,193.99 47.61,122.2 75.46,93.89 95.27,168.01 -368.98,0 -873.4,318.33 -1053.21,681.37 -25.92,52.32 -71.91,119.49 -77.43,185.84 -141.09,0 -114.37,-80.38 -331.23,-241.79l-236.36 -135.33c-138.07,-67.93 -249.52,-26.86 -319.22,-377.72 -27.57,-138.83 -28.18,-283.64 10.01,-416.06 58.92,-204.37 222.88,-426.34 396.35,-548.37 94.76,-66.65 207.71,-128.9 326.39,-153.71 49.56,-10.35 165.74,-31.8 216,-31.8zm1781.14 1084.04c-78.5,-6.55 -182.05,-63.45 -238.9,-101.84 -70.53,-47.63 -131.09,-109.52 -182.24,-173.95 -47.99,-60.44 -98.85,-146.49 -127.05,-229.15 -227.28,-666.32 337.37,-1223.28 842.47,-1105.62 -73.19,314.11 -106.93,407.27 -177,767.67 -27.98,143.93 -38.58,268.79 -64.27,415.8 -23.24,132.94 -53.01,286.2 -53.01,427.09zm-8905.67 10917.62c252.9,0 914.8,-230 1182.92,-319.38 368.11,-122.72 714.49,-265.32 1042.15,-429.18 84.46,-42.23 157.5,-78.67 237.54,-118.65l588.99 -340.24c187.95,-110.28 368.26,-243.7 541.76,-372.02l360.2 -290.24c140.24,-126.6 347.7,-309.91 464.54,-449.19l139.25 -139.53c244.94,-244.91 455.68,-527.63 681.39,-789.87 169.07,-196.4 317.77,-418.25 473.72,-625.86l312.23 -431.15c25.97,-37.17 51.49,-68.62 77.63,-108.21l1381.54 -2118.49c97.23,-156.97 182.84,-309.93 276.18,-467.17l263.06 -464.84c143,-281.75 303.15,-562.74 433.33,-852.06 266.44,-592.1 482.69,-1102.92 628.9,-1771.51 89.14,-407.54 140.06,-849.48 203.84,-1267.36 78.53,-514.55 186.2,-1004.25 361.91,-1480.97l225.17 -518.19c38.19,-75.6 70.11,-199.39 129.08,-242.61 0,88.72 1.66,137.61 12.15,204.66 10.68,68.24 -3.15,136.99 9.55,207.26l198.64 1969.42c6.77,45.94 22.18,138.02 26.96,189.86 5.99,64.99 9.19,128.97 19.4,197.39 18.29,122.5 14.25,271.67 36.87,396.76 51.8,286.6 8.67,728.97 -23.46,1017.18 -8.76,78.48 -8.91,119.69 -20.48,196.36 -16.55,109.81 -38.26,250.68 -64.47,369.12 -156.94,709.05 -325.16,1170.37 -580.24,1820.18l-112.44 258.36c-98.98,243.3 -259.98,515.4 -385.07,761.84 -94.54,186.25 -215.21,364.53 -320.41,546.84 -55.97,97.05 -121.93,183.66 -174.99,274.12 -179.12,305.32 -409.77,613.13 -619.98,897.75l-374.25 493.02c-105.19,140.8 -470.55,606.48 -590.01,726.39l-148.02 177.19c-18.99,24.2 -32.57,32.09 -53.39,55.01l-1323.92 1386.33c-142.42,119.44 -264.33,249.22 -412.94,361.42 -209.35,158.05 -406.54,310.1 -635.06,449.02 -1257.94,764.64 -2711.17,829.46 -4122.63,1112.23 -412.36,82.6 -794.35,179.42 -1163.04,354.74 -240.22,114.25 -482.34,233.4 -704.83,379.3 -47.24,30.98 -85.85,51.63 -133.4,83.41l-325.43 217.11c-25.44,17.45 -86.71,58.01 -66.97,7.89 19.12,-48.45 118.04,-155.78 152.73,-201.37 63.35,-83.25 116.59,-161.01 174.42,-243.73 28.69,-41.07 52.03,-69.68 83.82,-117.5 31.25,-46.97 60.79,-87.04 86.3,-130.53 211.97,-361.33 423.31,-697.68 582.77,-1089.79 386.52,-950.39 575.65,-1964.23 776.88,-2970.85 121.34,-606.94 291.58,-1413.88 519.68,-1973.64 201.05,-493.4 213.33,-601.13 496.26,-1176.28l278.56 -557.74c25.21,-50.67 41.53,-83.67 66.85,-134.46l832.53 -1459.51c287.48,-472.81 589.58,-933.56 901.08,-1390.99l802.52 -1086.89 1099.66 -1176.94c52.75,-39.14 70.87,-64.97 117.7,-99.11l349.8 -269.68c255.15,-173.65 516.9,-322.66 806.87,-447.61 56.08,-24.17 98.77,-38.99 155.09,-61.74 532.96,-215.29 1079.19,-308.81 1663.17,-427.67 139.22,-28.33 1248.99,-251.23 1408.21,-264.48 -122.19,106.19 -854.65,478.92 -1043.03,583.16l-242.72 128.97c-202.35,102.79 -404.18,229.24 -617.18,312.07l-244.93 111.28c-255.24,122.19 -527.75,219.56 -790.17,324.94 -386.55,155.24 -1052.72,487.02 -1379.4,819.79l-193.47 178.24c-34.69,34.69 -58.28,58.28 -92.78,93.04l-132.83 130.46c-66.25,85.19 -157.29,154.91 -231.67,232.94 -37.27,39.08 -43.21,60.23 -84.68,101.18l-262.43 295.09c-20.52,26.13 -13.37,24.31 -39.65,53.27l-992.21 1299.85 -569.84 901.41c-25.42,41.9 -36.03,66.25 -61.84,108.52 -116.68,190.92 -209.88,397.1 -328.45,585.27 -109.03,172.98 -282.99,525.81 -385.09,729.94l-531.84 1109.78c-21.94,43.69 -32.9,81.74 -56.52,129.3 -167.36,336.95 -290.7,698.62 -421.65,1049.58 -34.21,91.72 -63.36,190.11 -92.9,278.78 -256.73,770.27 -466.92,1569.17 -561.1,2381.33 -11.28,97.5 -39.06,221.93 -44.9,326.77l-32.2 339.45c-4.84,43.68 -9.02,96.4 -15.49,154.86 -5.61,50.7 -10.02,16.71 -14.32,78.62 -2.04,29.67 2.27,61.69 -1.11,91.79l-15.5 170.33c-5.71,50.67 -10.07,16.63 -14.35,78.58 -8.89,128.2 -34.01,302.62 -16.34,418.2 15.42,100.93 87.53,170.28 202.22,170.28zm-5730.62 5032.95c146.25,0 203.47,-39.89 303.56,-114.59l218.93 -199.24c35.7,-35.4 43.07,-32.91 77.55,-61.83l1029.73 -921.65c34.26,-32.68 44.26,-30.95 78.02,-61.36l147.28 -131.49c117.14,-112.32 238.85,-231.34 369.02,-327.89l820.88 -727.85c109.64,-81.34 256.44,-238.14 366.43,-330.49l482.55 -353.76c39,-26.57 41.08,-32.73 80.08,-59.3 61.16,-41.62 106.02,-70.29 167.51,-111.27 166.82,-111.2 340.85,-225.17 520.63,-315.7l479.87 -232.53c38.34,-17.34 49.23,-23.64 98.89,-40.5 596.38,-202.38 956.29,-275.93 1575.55,-375.9 319.15,-51.54 640.16,-90.31 959.79,-155.35 608.86,-123.93 1200.53,-238.43 1775.19,-470.51 144.01,-58.17 252.74,-103.85 386.7,-170.85l544 -307.79 487.72 -348.61c153.45,-127.47 313.4,-242.7 456.87,-379.45 165.55,-157.81 594.97,-544.86 709.76,-699.56l467.32 -508.34c136.11,-142.62 250.18,-307.17 387.15,-449.16 33.03,-34.22 30.86,-43.96 61.56,-77.83l1280.41 -1662.11c306.92,-450.7 591.35,-912.56 855.61,-1389.99l242.85 -469.51c18.49,-36.93 28.45,-55.57 46.71,-92.69l441.71 -1091.47c187.24,-561.81 414.28,-1329.26 435.25,-1934.16 2.39,-68.84 13.75,-54.12 16.47,-122.9 10.92,-274.87 4.67,-661.79 -16,-945.32l-43.01 -375.09c-51.18,-341.53 -74.56,-674.47 -124.02,-1006.48l-50.29 -507.22c-1.71,-166.83 -33.53,-341.62 -46.14,-511.36l-15.77 -262.99c0.32,-112.98 -16.07,-155.8 -15,-263.74 1.01,-103.87 -30.45,-447.72 -56.8,-516.19 -61.2,-158.94 -212.68,-182.47 -361,-164.64 -77.5,9.32 -160.3,30.18 -234,44.84l-1169.71 224.18c-617.98,112.54 -1258.46,221.87 -1855.54,390.19 -473.56,133.49 -950.77,323.74 -1359.59,591.83 -167,109.53 -337.04,216.82 -488.97,347.33l-441.26 395.05c-30.8,31.08 -40.26,41.54 -73.61,65.77 -78.4,56.94 -134.89,142.67 -205.2,212.97 -46.28,46.27 -106.85,98.2 -144.83,149.41 -47.85,64.49 -87.91,90.65 -130.11,148.65 -26.48,36.41 -35.74,40.06 -66.03,73.37 -30.78,33.86 -28.2,43.48 -61.44,77.93l-129.62 149.14c-43.93,58.52 -80.68,97.71 -123.87,154.92l-1388 1972.64c-21.34,33.75 -28.78,51.87 -52.35,87.03 -24.72,36.88 -32.68,51.24 -53.2,86.19 -16.39,27.94 -35.77,51.99 -55.3,84.06l-263.2 433.73c-162.77,267.72 -320.57,526.4 -465.97,803.95 -19.76,37.7 -26.86,56.97 -48.33,91.04 -73.62,116.83 -123.22,244.93 -195.19,362.35 -71.5,116.7 -122.96,247.56 -189.83,367.69 -24.89,44.75 -31.02,41.86 -49.89,89.48 -66.61,168.16 -157.08,313.08 -229.23,483.17 -15.75,37.17 -29.21,56.63 -46.46,92.92l-208.52 488.37c-24,68.87 -52.62,130.81 -77.39,201.37l-282.48 832.55c-387.19,1303.51 -514.97,2783.48 -987.37,4061.2 -109.24,295.46 -243.11,583.89 -395.4,859.03l-160.7 272.93c-135.13,228.28 -291.91,450.56 -452.9,662.16 -22.23,29.23 -39.2,51 -60.24,79.13 -295.8,395.55 -633.41,758.87 -984.59,1106.15l-298.39 259.15c-34.67,25.21 -41.44,34.19 -73.34,66.04l-829.08 719.64c-118.51,118.34 -254.75,208.45 -371.7,325.22l-146.7 132.08c-37.22,37.17 -49.69,36.82 -85.63,69.26l-371.71 325.2c-27.8,25.07 -41.44,46.16 -70.49,68.9 -36.61,28.63 -40.92,26.56 -76.54,62.84l-224.68 193.47c-51.97,46.76 -95.46,83.82 -125.09,153.67 -65.85,155.32 -10.06,330.47 160.15,330.47z"/>
    <path class="fil0" d="M18141.04 8355.93l4.64 -4.63c-0.32,0.32 -6.18,3.08 -4.64,4.63zm-15.49 0l4.62 4.62c-0.29,-0.3 -3.08,-6.17 -4.62,-4.62z"/>
   </g>
  </g>
 </g>
</svg>
